:version 1.10
:name ASF
:units
  mass 1
  length 1
  angle deg
:documentation
  ASF file generated by Kaydara
:root
  axis xyz
  order  tx ty tz rx ry rz
  position 0 0 0
  orientation 0 0 0
:bonedata
  begin
    id 1
    name abdomenDummy
    direction 1 -1.27917e-005 -1.26829e-007
    length 1.79048
    axis 0 0 0 xyz
  end
  begin
    id 2
    name abdomen
    direction 0.987238 0.159249 -9.68575e-008
    length 8.61378
    axis 2.73208e-005 5.54953e-006 9.16328 xyz
    dof rx ry rz
  end
  begin
    id 3
    name chest
    direction 0 0 0
    length 0
    axis 2.65071e-005 8.63688e-006 2.59796 xyz
    dof rx ry rz
  end
  begin
    id 4
    name neckDummyDummy
    direction 0.998972 0.0453274 -1.50742e-007
    length 9.56202
    axis 2.65071e-005 8.63688e-006 2.59796 xyz
  end
  begin
    id 5
    name neckDummy
    direction 0.99977 0.0214525 -1.61748e-007
    length 1.93574
    axis 2.62932e-005 9.26758e-006 1.22924 xyz
    dof rx ry rz
  end
  begin
    id 6
    name neck
    direction 0.99928 -0.0379406 -1.88707e-007
    length 3.70367
    axis 2.56966e-005 1.08122e-005 -2.17436 xyz
    dof rx ry rz
  end
  begin
    id 7
    name head
    direction 0.992648 -0.121037 -2.25408e-007
    length 6.35158
    axis 2.47068e-005 1.29149e-005 -6.95196 xyz
    dof rx ry rz
  end
  begin
    id 8
    name figureHair
    direction -0.86681 -0.498639 -7.83376e-008
    length 8.29884
    axis -2.7515e-005 4.48842e-006 -150.09 xyz
    dof rx ry rz
  end
  begin
    id 9
    name lCollarDummy
    direction 0.994611 0.0451299 -0.0933417
    length 9.60395
    axis 2.65071e-005 8.63688e-006 2.59796 xyz
  end
  begin
    id 10
    name lCollar
    direction 0.0384146 0.00127577 -0.999261
    length 6.95318
    axis 90.4899 87.7973 1.90202 xyz
    dof rx ry rz
  end
  begin
    id 11
    name lShldr
    direction -0.030648 0.0920515 -0.995282
    length 9.61158
    axis -161.793 84.4324 108.415 xyz
    dof rx ry rz
  end
  begin
    id 12
    name lForeArm
    direction 0.000163956 -0.0977586 -0.99521
    length 8.6068
    axis 0.134773 84.3899 -89.8525 xyz
    dof rx ry rz
  end
  begin
    id 13
    name lHand
    direction -0.0190533 -0.1444 -0.989336
    length 7.61479
    axis -7.3729 81.6249 -97.517 xyz
    dof rx ry rz
  end
  begin
    id 14
    name rCollarDummy
    direction 0.994871 0.0442627 0.0909555
    length 9.60761
    axis 2.65071e-005 8.63688e-006 2.59796 xyz
  end
  begin
    id 15
    name rCollar
    direction 0.0334251 -4.74072e-007 0.999441
    length 6.97058
    axis -178.152 -88.0845 -0.000674207 xyz
    dof rx ry rz
  end
  begin
    id 16
    name rShldr
    direction -0.026922 0.0719509 0.997045
    length 9.60913
    axis 71.2822 -85.594 110.514 xyz
    dof rx ry rz
  end
  begin
    id 17
    name rForeArm
    direction 0.00134679 -0.118986 0.992895
    length 8.57176
    axis -88.7923 -83.1659 -89.3516 xyz
    dof rx ry rz
  end
  begin
    id 18
    name rHand
    direction -0.0185183 -0.0768601 0.99687
    length 7.69687
    axis -74.5596 -85.4655 -103.546 xyz
    dof rx ry rz
  end
  begin
    id 19
    name lThighDummy
    direction -0.236086 -0.0385456 -0.970967
    length 4.99155
    axis 0 0 0 xyz
  end
  begin
    id 20
    name lThigh
    direction -0.993968 0.0148998 -0.108653
    length 13.572
    axis -91.4001 6.23768 179.141 xyz
    dof rx ry rz
  end
  begin
    id 21
    name lShin
    direction -0.992341 0.0904576 -0.0841193
    length 18.5862
    axis -91.4558 4.82538 174.792 xyz
    dof rx ry rz
  end
  begin
    id 22
    name lFoot
    direction 0.0209381 -0.999771 -0.00453005
    length 8.44474
    axis 4.86759 0.259522 -88.8001 xyz
    dof rx ry rz
  end
  begin
    id 23
    name rThighDummy
    direction -0.236086 -0.0385456 0.970967
    length 4.99155
    axis 0 0 0 xyz
  end
  begin
    id 24
    name rThigh
    direction -0.993968 0.0148995 0.108653
    length 13.5721
    axis -89.7059 -6.2377 179.141 xyz
    dof rx ry rz
  end
  begin
    id 25
    name rShin
    direction -0.9925 0.0899962 0.0827255
    length 18.6716
    axis -89.2745 -4.74775 174.819 xyz
    dof rx ry rz
  end
  begin
    id 26
    name rFoot
    direction 0.0301721 -0.999545 9.70865e-005
    length 8.45013
    axis -2.50066e-005 -0.00555246 -88.271 xyz
    dof rx ry rz
  end
:hierarchy
  begin
    root abdomenDummy lThighDummy rThighDummy
    abdomenDummy abdomen
    abdomen chest
    chest neckDummyDummy lCollarDummy rCollarDummy
    neckDummyDummy neckDummy
    neckDummy neck
    neck head
    head figureHair
    lCollarDummy lCollar
    lCollar lShldr
    lShldr lForeArm
    lForeArm lHand
    rCollarDummy rCollar
    rCollar rShldr
    rShldr rForeArm
    rForeArm rHand
    lThighDummy lThigh
    lThigh lShin
    lShin lFoot
    rThighDummy rThigh
    rThigh rShin
    rShin rFoot
  end

:SAMPLES-PER-SECOND 25
:FULLY-SPECIFIED
:DEGREES
59
root  2.26223 37.0929 -1.08265 177.904 -0.102615 90.9647
abdomen  -0.237921 -2.17323 4.21449
chest  0.0831737 -0.00422405 -12.5309
neckDummy  9.09964e-021 0 8.72668e-016
neck  3.81476 8.19895 19.1108
head  0.0480837 -7.01074 -9.46577
figureHair  0 1.51661e-021 -9.5315e-016
lCollar  -5.15695e-016 -6.42944e-016 -7.59357e-014
lShldr  29.3086 0.977416 -81.8548
lForeArm  19.3987 -16.1505 -1.69788
lHand  0.254698 0.195082 5.2986
rCollar  1.7976e-016 -5.12864e-014 1.62755e-015
rShldr  -27.5325 75.1379 -5.51369
rForeArm  6.73608 2.93884 14.0726
rHand  0.539402 -6.74731 -3.19672
lThigh  -7.02359 -1.33122 -0.45198
lShin  -12.5381 0.45052 -5.21384
lFoot  5.62227 -0.505624 -2.44251
rThigh  8.83452 -3.94138 -0.506172
rShin  0.758551 3.88846 2.87015
rFoot  -4.32101 0.207617 -2.60655
60
root  2.2675 37.0928 -1.05386 177.611 -0.0927734 90.9997
abdomen  -0.247117 -2.62873 4.32634
chest  0.187068 0.515565 -12.6935
neckDummy  9.09964e-021 0 8.72668e-016
neck  3.78682 8.17798 18.694
head  0.052569 -7.04868 -9.26566
figureHair  0 1.51661e-021 -9.5315e-016
lCollar  -5.15695e-016 -6.42944e-016 -7.59357e-014
lShldr  29.1152 1.27593 -81.3583
lForeArm  18.5517 -17.0797 -1.19268
lHand  0.254698 0.195082 5.2986
rCollar  1.7976e-016 -5.12864e-014 1.62755e-015
rShldr  -33.7603 72.3212 -3.18926
rForeArm  5.93043 2.12957 15.9608
rHand  0.514039 -6.20048 -3.41014
lThigh  -6.961 -1.26825 -0.518521
lShin  -12.8992 0.348909 -5.23128
lFoot  5.64143 -0.508505 -2.41967
rThigh  8.83968 -4.05055 -0.545201
rShin  0.459606 3.87365 2.82908
rFoot  -4.27819 0.193641 -2.68678
61
root  2.28237 37.0926 -1.03532 177.494 -0.0829926 91.0741
abdomen  -0.319619 -3.19363 4.40606
chest  0.244262 1.08811 -12.7763
neckDummy  9.09964e-021 0 8.72668e-016
neck  3.89883 8.59902 18.2021
head  -0.0114978 -7.33476 -8.80067
figureHair  0 1.51661e-021 -9.5315e-016
lCollar  -5.15695e-016 -6.42944e-016 -7.59357e-014
lShldr  30.3302 1.13057 -79.6482
lForeArm  16.3361 -18.1402 -0.834602
lHand  0.254698 0.195082 5.2986
rCollar  1.7976e-016 -5.12864e-014 1.62755e-015
rShldr  -36.7454 70.4447 -1.81443
rForeArm  6.01243 1.64389 16.9625
rHand  0.647347 -8.56096 -2.98566
lThigh  -6.90994 -1.33024 -0.568167
lShin  -13.0732 0.306815 -5.22788
lFoot  5.65438 -0.509268 -2.42802
rThigh  8.8662 -4.21 -0.590727
rShin  0.324348 3.92649 2.8254
rFoot  -4.24331 0.18646 -2.71793
62
root  2.29821 37.0925 -1.03934 177.699 -0.0656586 91.0179
abdomen  -0.409389 -3.15192 4.26571
chest  0.140497 1.03865 -12.7062
neckDummy  9.09964e-021 0 8.72668e-016
neck  4.03513 8.78644 17.6421
head  0.0505124 -7.27628 -8.32184
figureHair  0 1.51661e-021 -9.5315e-016
lCollar  -5.15695e-016 -6.42944e-016 -7.59357e-014
lShldr  31.6641 0.926762 -77.8946
lForeArm  16.2224 -19.4222 -0.641463
lHand  0.254698 0.195082 5.2986
rCollar  1.7976e-016 -5.12864e-014 1.62755e-015
rShldr  -35.2977 69.3894 0.468557
rForeArm  4.35824 2.03094 16.3396
rHand  0.695921 -9.71024 -2.68322
lThigh  -6.93015 -1.36551 -0.564503
lShin  -12.8517 0.347269 -5.23518
lFoot  5.64954 -0.506742 -2.46978
rThigh  8.90548 -4.18576 -0.622866
rShin  0.48348 4.0061 2.84777
rFoot  -4.25173 0.192095 -2.67817
63
root  2.31114 37.0924 -1.05357 177.844 -0.0432739 90.9123
abdomen  -0.389772 -2.82923 4.11064
chest  0.0764903 0.620603 -12.7343
neckDummy  9.09964e-021 0 8.72668e-016
neck  4.24694 8.97728 17.2478
head  0.177621 -7.19446 -7.97479
figureHair  0 1.51661e-021 -9.5315e-016
lCollar  -5.15695e-016 -6.42944e-016 -7.59357e-014
lShldr  31.3836 0.600922 -76.9152
lForeArm  18.0624 -19.8227 -0.6352
lHand  0.254698 0.195082 5.2986
rCollar  1.7976e-016 -5.12864e-014 1.62755e-015
rShldr  -30.2055 69.0716 3.22644
rForeArm  2.07954 3.15771 14.6761
rHand  0.683409 -9.97096 -2.40689
lThigh  -6.96135 -1.29583 -0.549697
lShin  -12.6569 0.35228 -5.25257
lFoot  5.63976 -0.503572 -2.51541
rThigh  8.92113 -4.09602 -0.630515
rShin  0.611764 4.07714 2.84438
rFoot  -4.29415 0.200788 -2.64085
64
root  2.32634 37.0923 -1.06393 177.883 -0.0320587 90.8669
abdomen  -0.320082 -2.69962 4.07834
chest  0.100006 0.301977 -12.8376
neckDummy  9.09964e-021 0 8.72668e-016
neck  4.49219 9.29451 16.9038
head  0.278321 -7.26 -7.59218
figureHair  0 1.51661e-021 -9.5315e-016
lCollar  -5.15695e-016 -6.42944e-016 -7.59357e-014
lShldr  30.8156 0.027055 -76.6201
lForeArm  18.5175 -19.1088 -0.67545
lHand  0.254698 0.195082 5.2986
rCollar  1.7976e-016 -5.12864e-014 1.62755e-015
rShldr  -22.866 69.382 5.53686
rForeArm  0.79131 4.4252 12.8086
rHand  0.720335 -11.255 -2.01479
lThigh  -6.92985 -1.27672 -0.564508
lShin  -12.665 0.340589 -5.22108
lFoot  5.63276 -0.501284 -2.54884
rThigh  8.92026 -4.08756 -0.630856
rShin  0.622982 4.10259 2.84096
rFoot  -4.3225 0.203891 -2.63829
65
root  2.34337 37.0922 -1.07727 177.946 -0.0311279 90.8609
abdomen  -0.273508 -2.6215 4.02047
chest  0.11145 0.0473654 -12.8151
neckDummy  9.09964e-021 0 8.72668e-016
neck  4.58869 9.30894 16.5678
head  0.3757 -7.13794 -7.3254
figureHair  0 1.51661e-021 -9.5315e-016
lCollar  -5.15695e-016 -6.42944e-016 -7.59357e-014
lShldr  30.1786 -0.578536 -76.6375
lForeArm  17.5264 -18.0617 -0.843456
lHand  0.254698 0.195082 5.2986
rCollar  1.7976e-016 -5.12864e-014 1.62755e-015
rShldr  -16.6044 70.1143 7.48036
rForeArm  -0.0184685 5.09659 11.5303
rHand  0.744853 -12.3765 -1.66628
lThigh  -6.89939 -1.32112 -0.568347
lShin  -12.6305 0.346548 -5.17275
lFoot  5.61437 -0.497615 -2.58971
rThigh  8.93493 -4.07732 -0.627235
rShin  0.66147 4.07789 2.8777
rFoot  -4.34094 0.205736 -2.63805
66
root  2.35754 37.092 -1.09413 178.031 -0.0285492 90.8363
abdomen  -0.222232 -2.51792 3.92285
chest  0.126809 -0.18666 -12.7831
neckDummy  9.09964e-021 0 8.72668e-016
neck  4.51815 9.02546 16.5012
head  0.439177 -6.79886 -7.39563
figureHair  0 1.51661e-021 -9.5315e-016
lCollar  -5.15695e-016 -6.42944e-016 -7.59357e-014
lShldr  28.7575 -1.09345 -76.7605
lForeArm  17.0516 -17.1726 -1.16452
lHand  0.254698 0.195082 5.2986
rCollar  1.7976e-016 -5.12864e-014 1.62755e-015
rShldr  -13.4038 71.069 9.30672
rForeArm  -0.383236 5.12982 11.2612
rHand  0.717209 -12.5425 -1.37721
lThigh  -6.93157 -1.32538 -0.533985
lShin  -12.5087 0.332361 -5.18013
lFoot  5.59634 -0.493491 -2.64046
rThigh  8.96094 -4.02063 -0.62241
rShin  0.703826 4.0333 2.92507
rFoot  -4.37332 0.208666 -2.6402
67
root  2.36951 37.0919 -1.10482 178.085 -0.0312653 90.8213
abdomen  -0.190133 -2.55222 3.86661
chest  0.156608 -0.263537 -12.8301
neckDummy  9.09964e-021 0 8.72668e-016
neck  4.40747 8.80848 16.6298
head  0.426659 -6.53026 -7.58099
figureHair  0 1.51661e-021 -9.5315e-016
lCollar  -5.15695e-016 -6.42944e-016 -7.59357e-014
lShldr  27.9762 -1.51699 -76.8248
lForeArm  16.9184 -16.7543 -1.35414
lHand  0.254698 0.195082 5.2986
rCollar  1.7976e-016 -5.12864e-014 1.62755e-015
rShldr  -13.1489 72.1012 10.8791
rForeArm  0.588246 4.62696 12.0119
rHand  0.697567 -12.4296 -1.27379
lThigh  -6.9596 -1.32813 -0.503741
lShin  -12.4321 0.317735 -5.19687
lFoot  5.60823 -0.492519 -2.68115
rThigh  8.97518 -3.97807 -0.619493
rShin  0.719225 3.98374 2.95706
rFoot  -4.40681 0.209123 -2.6634
68
root  2.38029 37.0917 -1.11086 178.127 -0.03125 90.8082
abdomen  -0.195908 -2.65603 3.77491
chest  0.161326 -0.269485 -12.7822
neckDummy  9.09964e-021 0 8.72668e-016
neck  4.35518 8.76478 16.6095
head  0.401347 -6.425 -7.63873
figureHair  0 1.51661e-021 -9.5315e-016
lCollar  -5.15695e-016 -6.42944e-016 -7.59357e-014
lShldr  28.9825 -1.7146 -76.7764
lForeArm  16.5132 -16.9962 -1.25396
lHand  0.254698 0.195082 5.2986
rCollar  1.7976e-016 -5.12864e-014 1.62755e-015
rShldr  -14.7186 73.0953 12.39
rForeArm  1.53996 3.71312 13.4542
rHand  0.701056 -11.5892 -1.68705
lThigh  -6.9291 -1.34787 -0.510711
lShin  -12.4201 0.314302 -5.16758
lFoot  5.63112 -0.493062 -2.71077
rThigh  8.98181 -3.95919 -0.621535
rShin  0.744761 3.95322 2.97782
rFoot  -4.41891 0.208007 -2.68219
69
root  2.38724 37.0915 -1.11754 178.122 -0.0131683 90.7809
abdomen  -0.18153 -2.67735 3.6348
chest  0.165007 -0.384963 -12.6583
neckDummy  9.09964e-021 0 8.72668e-016
neck  4.41266 8.85489 16.4617
head  0.429731 -6.37121 -7.63597
figureHair  0 1.51661e-021 -9.5315e-016
lCollar  -5.15695e-016 -6.42944e-016 -7.59357e-014
lShldr  30.3046 -1.69105 -76.8233
lForeArm  16.4318 -17.4871 -1.04757
lHand  0.254698 0.195082 5.2986
rCollar  1.7976e-016 -5.12864e-014 1.62755e-015
rShldr  -16.1974 74.005 14.3499
rForeArm  1.14358 2.70505 15.0283
rHand  0.649616 -10.2965 -1.89692
lThigh  -6.89559 -1.30026 -0.530589
lShin  -12.4447 0.257318 -5.15403
lFoot  5.62998 -0.491138 -2.74752
rThigh  8.993 -3.9513 -0.633123
rShin  0.733203 3.96981 2.97868
rFoot  -4.3968 0.207138 -2.67158
70
root  2.39143 37.0913 -1.12276 178.095 0.0108948 90.7742
abdomen  -0.153432 -2.67139 3.57217
chest  0.176855 -0.557486 -12.6117
neckDummy  9.09964e-021 0 8.72668e-016
neck  4.50128 8.95769 16.33
head  0.480453 -6.25636 -7.62802
figureHair  0 1.51661e-021 -9.5315e-016
lCollar  -5.15695e-016 -6.42944e-016 -7.59357e-014
lShldr  30.9036 -1.67111 -77.1466
lForeArm  16.5325 -17.7212 -0.959333
lHand  0.254698 0.195082 5.2986
rCollar  1.7976e-016 -5.12864e-014 1.62755e-015
rShldr  -16.5854 74.8495 16.477
rForeArm  1.11741 1.83172 16.5281
rHand  0.597149 -10.1119 -1.51198
lThigh  -6.89775 -1.2386 -0.533373
lShin  -12.4647 0.163052 -5.18709
lFoot  5.6124 -0.487118 -2.7974
rThigh  9.00305 -3.97476 -0.651091
rShin  0.694811 4.00171 2.96926
rFoot  -4.36507 0.205295 -2.66114
